<?xml version="1.0" standalone="no"?>
<!DOCTYPE svg PUBLIC "-//W3C//DTD SVG 1.1//EN" "http://www.w3.org/Graphics/SVG/1.1/DTD/svg11.dtd" >
<svg xmlns="http://www.w3.org/2000/svg">
<metadata>Generated by IcoMoon</metadata>
<defs>
<font id="cd-icon" horiz-adv-x="1024">
<font-face units-per-em="1024" ascent="960" descent="-64" />
<missing-glyph horiz-adv-x="1024" />
<glyph unicode="&#x20;" horiz-adv-x="512" d="" />
<glyph unicode="&#xe900;" glyph-name="anlian" horiz-adv-x="1130" d="M1059.342-63.997h-988.684c-39.006 0-70.624 31.618-70.624 70.624v0 882.752c0 39.006 31.618 70.624 70.624 70.624v0h988.684c39.006 0 70.624-31.618 70.624-70.624v0-882.752c0-39.006-31.618-70.624-70.624-70.624v0zM1059.342 889.375h-988.684v-105.931h988.684v105.931zM1059.342 712.824h-988.684v-706.205h988.684v706.205zM317.83 500.961h35.307c39.006 0 70.624-31.618 70.624-70.624v0-282.479c0-39.006-31.618-70.624-70.624-70.624v0h-35.307c-39.006 0-70.624 31.618-70.624 70.624v0 282.479c0 39.006 31.618 70.624 70.624 70.624v0zM317.83 147.866h35.307v282.479h-35.307v-282.479zM565.001 430.345h35.307c39.006 0 70.624-31.618 70.624-70.624v0-211.863c0-39.006-31.618-70.624-70.624-70.624v0h-35.307c-39.006 0-70.624 31.618-70.624 70.624v0 211.863c0 39.006 31.618 70.624 70.624 70.624v0zM565.001 147.866h35.307v211.863h-35.307v-211.863zM812.172 642.208h35.307c39.006 0 70.624-31.618 70.624-70.624v0-423.717c0-39.006-31.618-70.624-70.624-70.624v0h-35.307c-39.006 0-70.624 31.618-70.624 70.624v0 423.717c0 39.006 31.618 70.624 70.624 70.624v0zM812.172 147.866h35.307v423.717h-35.307v-423.717zM141.283 818.756v35.307h-35.307v-35.307h35.307zM247.209 818.756v35.307h-70.624v-35.307h70.624zM317.83 818.756v35.307h-35.307v-35.307h35.307z" />
<glyph unicode="&#xe901;" glyph-name="weigui" horiz-adv-x="1130" d="M413.166 493.161l0.188-0.102c-5.885 3.447-12.737 5.423-20.050 5.423-21.943 0-39.731-17.788-39.731-39.731 0-14.63 7.907-27.413 19.869-34.41l347.584-200.673c5.885-3.447 12.737-5.423 20.050-5.423 21.943 0 39.731 17.788 39.731 39.731 0 14.63-7.907 27.413-19.869 34.41l-347.772 200.775zM686.927 126.251l-0.734 0.357c19.109-10.2 40.932-15.981 64.105-15.981 51.955 0 97.123 29.063 120.489 72.544l-0.329-0.555c13.401 21.099 21.162 46.132 21.162 72.977 0 48.313-25.137 90.754-63.594 115.288l-53.737 31.057c-18.754 10.63-40.433 16.699-63.53 16.699-25.082 0-48.493-7.157-67.759-19.225l192.029-110.896c10.594-6.783 17.616-18.656 17.616-32.169 0-7.518-2.173-14.528-5.834-20.281l-33.998-58.924c-6.443-11.967-19.087-20.101-33.631-20.101-6.492 0-12.605 1.621-17.752 4.379l-191.912 110.769 0.005 0.194c-0.040-1.321-0.060-2.648-0.060-3.979 0-46.851 24.972-87.87 62.908-110.796l54.378-31.391zM560.34 447.222l-0.005-0.194c0.040 1.321 0.060 2.648 0.060 3.979 0 46.851-24.972 87.87-62.908 110.796l-54.378 31.391 0.733-0.357c-19.115 10.209-40.948 15.996-64.132 15.996-51.961 0-97.133-29.069-120.497-72.558l0.329 0.554c-13.425-21.112-21.202-46.168-21.202-73.040 0-48.271 25.093-90.68 63.493-115.224l53.738-31.057c18.753-10.633 40.433-16.704 63.53-16.704 25.083 0 48.493 7.159 67.758 19.23l-187.51 108.248c-10.603 6.781-17.631 18.659-17.631 32.179 0 7.528 2.179 14.548 5.85 20.306l33.998 58.924c6.443 11.967 19.087 20.101 33.631 20.101 6.492 0 12.605-1.621 17.752-4.379zM1059.345-64.001h-988.69c-39.003 0-70.621 31.618-70.621 70.621v0 882.759c0 39.003 31.618 70.621 70.621 70.621v0h988.69c39.003 0 70.621-31.618 70.621-70.621v0-882.759c0-39.003-31.618-70.621-70.621-70.621v0zM1059.345 889.378h-988.69v-105.931h988.69v105.931zM1059.345 712.827h-988.69v-706.207h988.69v706.207zM141.276 818.758v35.31h-35.31v-35.31h35.31zM247.207 818.758v35.31h-70.621v-35.31h70.621zM317.828 818.758v35.31h-35.31v-35.31h35.31z" />
<glyph unicode="&#xe902;" glyph-name="guama" horiz-adv-x="1130" d="M1059.35-64.002h-988.69c-39.003 0-70.621 31.618-70.621 70.621v0 882.759c0 39.003 31.618 70.621 70.621 70.621v0h988.69c39.003 0 70.621-31.618 70.621-70.621v0-882.759c0-39.003-31.618-70.621-70.621-70.621v0zM1059.35 889.377h-988.69v-105.931h988.69v105.931zM1059.35 712.826h-988.69v-706.207h988.69v706.207zM141.281 818.757v35.31h-35.31v-35.31h35.31zM247.212 818.757v35.31h-70.621v-35.31h70.621zM317.833 818.757v35.31h-35.31v-35.31h35.31zM534.745 494.431h70.303l-8.263-186.474h-54.166l-7.874 186.474zM542.301 214.667l-0.038 0.033c-6.903 6.039-11.263 14.913-11.263 24.805 0 0.131 0.001 0.263 0.002 0.374l0.001-0.045c-0.009 0.306-0.013 0.613-0.013 0.921 0 9.83 4.399 18.632 11.382 24.583 7.592 6.638 11.476-11.546 22.634-11.546s25.777 18.15 32.98 11.441l0.034-0.030c6.765-5.997 11.028-14.752 11.028-24.503 0-0.289-0.004-0.576-0.010-0.821l-0.001 0.037c0.005-0.245 0.008-0.49 0.008-0.736 0-9.666-4.067-18.383-10.6-24.547l0.004 0.004c-6.496-6.403-15.415-10.355-25.258-10.355-0.209 0-0.417 0.002-0.594 0.005l0.108 0.005c-0.772-0.041-1.549-0.062-2.331-0.062-10.751 0-20.581 3.938-28.073 10.403zM867.509 147.86h-603.454c-71.539 0-66.878 99.646 0 181.53 43.396 53.142 177.117 213.169 226.304 272.313 16.376 24.654 44.028 40.685 75.423 40.685s59.047-16.030 75.215-40.353l0.208-0.332c40.925-49.223 167.124-199.857 226.304-272.313 73.269-89.724 59.674-181.53 0-181.53zM805.116 325.542c-46.857 55.72-146.891 171.608-179.306 209.461-13.3 19.017-35.097 31.3-59.763 31.3s-46.462-12.283-59.607-31.066l-0.155-0.234c-38.841-45.515-144.772-168.572-179.271-209.461-52.966-62.994-56.673-139.652 0-139.652h478.102c47.21 0 58.015 70.585 0 139.652z" />
<glyph unicode="&#xe903;" glyph-name="call" d="M1024 448c0-282.77-229.23-512-512-512s-512 229.23-512 512c0 282.77 229.23 512 512 512s512-229.23 512-512z" />
<glyph unicode="&#xe904;" glyph-name="uniE904" d="M1024 448c0-282.77-229.23-512-512-512s-512 229.23-512 512c0 282.77 229.23 512 512 512s512-229.23 512-512z" />
<glyph unicode="&#xe905;" glyph-name="uniE905" d="M819.2 396.8h-307.2c-28.277 0-51.2 22.923-51.2 51.2v0 256c0 28.277 22.923 51.2 51.2 51.2s51.2-22.923 51.2-51.2v0-204.8h256c28.277 0 51.2-22.923 51.2-51.2s-22.923-51.2-51.2-51.2v0z" />
<glyph unicode="&#xe906;" glyph-name="control" d="M1024 411.819c0-37.703-30.564-68.267-68.267-68.267h-46.933c-12.088-1.731-21.971-9.713-26.373-20.512l-0.081-0.224-22.187-49.067c-1.833-4.053-2.901-8.788-2.901-13.772 0-8.398 3.033-16.088 8.063-22.033l-0.041 0.050c0.004-0.038 0.006-0.082 0.006-0.126 0-0.587-0.348-1.092-0.85-1.321l-0.009-0.004 32.427-32.085c12.253-12.426 19.819-29.5 19.819-48.341s-7.567-35.916-19.827-48.349l0.008 0.008-48.64-48.384c-12.348-12.319-29.391-19.936-48.213-19.936s-35.865 7.617-48.215 19.938l0.001-0.001-32.427 32.512s0 0-0.853-0.512c-5.222 3.62-11.693 5.783-18.669 5.783-4.661 0-9.097-0.966-13.118-2.708l0.214 0.082-50.347-18.944c-11.27-4.494-19.466-14.505-21.31-26.605l-0.024-0.189s-0.853 0-0.853 0v-50.091l-0.853-1.109c-3.664-34.287-32.437-60.757-67.392-60.757-0.007 0-0.015 0-0.022 0h-68.265c-37.703 0-68.267 30.564-68.267 68.267v43.605l-5.12 1.536c-3.017 10.11-10.149 18.163-19.404 22.352l-0.223 0.090-49.493 22.613c-3.934 1.714-8.517 2.712-13.334 2.712-6.414 0-12.415-1.769-17.541-4.846l0.155 0.086c-0.696 0.129-1.289 0.499-1.702 1.018l-0.004 0.006-32.427-32c-12.348-12.319-29.391-19.936-48.213-19.936s-35.865 7.617-48.215 19.938l0.001-0.001-47.787 48.384c-12.278 12.43-19.862 29.521-19.862 48.384s7.584 35.954 19.868 48.391l-0.007-0.007 33.28 33.707c-0.256 1.274-0.86 2.379-1.708 3.244l0.001-0.001c2.098 4.231 3.325 9.212 3.325 14.481 0 4.533-0.908 8.853-2.553 12.789l0.081-0.219-18.773 50.688c-4.039 9.252-11.671 16.299-21.085 19.469l-0.248 0.072c0 2.048-0.853 4.096-0.853 6.144h-49.493c-37.703 0-68.267 30.564-68.267 68.267v0 68.267c0 37.703 30.564 68.267 68.267 68.267v0h52.053c-0.018 0.132-0.029 0.285-0.029 0.441 0 0.882 0.335 1.687 0.884 2.293l-0.003-0.003c8.175 3.661 14.516 10.196 17.837 18.29l0.083 0.227 23.040 49.323c1.564 3.816 2.472 8.244 2.472 12.885 0 5.394-1.226 10.501-3.416 15.058l0.090-0.209 2.56 4.352-36.693 36.864c-12.278 12.43-19.862 29.521-19.862 48.384s7.584 35.954 19.868 48.391l-0.007-0.007 48.64 48.384c12.348 12.319 29.391 19.936 48.213 19.936s35.865-7.617 48.215-19.938l-0.001 0.001 22.187-22.613c3.238-5.178 7.542-9.4 12.63-12.449l0.17-0.095 2.56-2.987c0.853 0 0.853 0.512 1.707 0.768 3.787-1.576 8.187-2.491 12.8-2.491s9.013 0.915 13.027 2.574l-0.227-0.083 50.347 18.859c9.133 4 16.151 11.407 19.546 20.572l0.081 0.249 2.56 0.768v53.333l1.707 12.117c6.354 31.112 33.499 54.189 66.033 54.189 0.185 0 0.37-0.001 0.555-0.002h68.239c37.703 0 68.267-30.564 68.267-68.267v0-34.133c-0.891-2.878-1.404-6.186-1.404-9.615 0-14.031 8.595-26.055 20.807-31.093l0.223-0.082 48.64-22.272c3.822-1.674 8.276-2.648 12.958-2.648 8.082 0 15.487 2.904 21.227 7.724l-0.051-0.042c0.853 0 0.853 0 1.707-0.512l32.427 32.768 16.213 13.141c9.733 5.774 21.455 9.187 33.974 9.187 18.754 0 35.72-7.658 47.94-20.018l0.006-0.006 48.64-48.384c12.278-12.43 19.862-29.521 19.862-48.384s-7.584-35.954-19.868-48.391l-34.126-34.126s0.853-0.512 0.853-0.853c-4.153-5.588-6.649-12.623-6.649-20.241 0-4.51 0.875-8.816 2.464-12.757l-0.082 0.229 19.627-50.517c4.547-11.707 15.255-20.072 28.038-21.154l0.122-0.008v-1.109h46.080l17.92-2.048c30.050-7.53 51.967-34.26 52.053-66.123v-68.277zM512 631.296c-0.177 0.001-0.387 0.001-0.597 0.001-102.127 0-184.917-82.79-184.917-184.917s82.79-184.917 184.917-184.917c102.127 0 184.917 82.79 184.917 184.916v0c0 0.051 0 0.111 0 0.171 0 101.883-82.471 184.503-184.297 184.746h-0.023z" />
<glyph unicode="&#xe907;" glyph-name="Appscan" horiz-adv-x="918" d="M902.4 192c-37.632-65.28-135.264-86.4-257.408-66.56-43.904-115.52-110.816-189.44-185.984-189.44s-142.272 73.92-186.272 189.44c-122.016-19.84-219.552 1.28-257.152 66.56s-6.976 160 71.072 255.68c-78.144 96-108.8 191.040-71.072 256.32s135.296 86.4 257.408 66.56c43.936 115.52 110.848 189.44 186.016 189.44s142.272-73.92 186.272-189.44c122.016 19.84 219.52-1.28 257.12-66.56s6.976-160-71.040-255.68c78.144-96 108.672-191.040 71.040-256.32zM71.040 224c24.928-43.2 93.344-55.68 182.848-40.96-10.73 36.69-19.947 81.133-25.821 126.623l-0.483 4.577c-36.857 28.070-69.549 57.009-99.997 88.153l-0.163 0.167c-57.28-70.080-81.216-135.36-56.384-178.56zM220.128 495.36c-18.912-15.68-35.84-31.68-51.776-47.68 16-16 33.44-31.68 52.224-47.36-0.704 15.68-1.568 31.36-1.568 47.68s0.448 31.68 1.12 47.36zM71.040 672c-24.96-43.2-1.44-108.8 56.128-178.88 30.729 31.328 63.489 60.365 98.18 87.014l2.204 1.626c6.359 49.997 15.653 94.432 28.093 137.533l-1.565-6.333c-89.472 14.72-158.112 2.24-183.040-40.96zM619.52 264.96c-13.216-8.64-26.656-16.64-40.512-24.96s-28.128-15.040-42.208-22.4c23.040-8.32 45.568-15.68 67.2-21.44 5.856 21.76 11.232 44.48 15.52 68.8zM459.008 0c49.76 0 94.368 53.44 126.336 137.92-49.771 13.062-91.823 27.714-132.377 45.183l6.009-2.303c-34.891-15.392-77.107-30.054-120.627-41.497l-6.189-1.383c32.032-84.8 76.96-137.92 126.848-137.92zM313.504 195.84c21.504 6.080 44 13.44 66.88 21.76-13.792 7.040-27.584 14.72-41.376 22.4s-27.136 16.32-40.288 24.64c4.256-24 9.024-47.040 14.784-68.8zM298.496 631.040c13.216 8.64 26.656 16.96 40.512 24.96s28.128 15.040 42.208 22.4c-23.040 8.32-45.568 15.68-67.2 21.44-5.856-21.76-11.232-44.48-15.52-68.8zM459.008 896c-49.792 0-94.368-53.44-126.336-137.92 49.526-12.827 91.588-27.486 132.074-45.090l-5.706 2.21c34.898 15.4 77.114 30.062 120.637 41.5l6.179 1.38c-32.032 84.8-76.96 137.92-126.848 137.92zM604.512 700.16c-21.536-6.080-44.032-13.44-66.912-21.76 13.824-7.040 27.616-14.72 41.408-22.4s27.136-16.32 40.256-24.64c-4.224 24-8.992 47.040-14.752 68.8zM630.112 547.2c-26.080 18.56-53.792 36.16-83.2 53.12s-58.656 32-87.552 45.44c-29.216-13.44-58.752-28.16-88.448-45.44s-57.344-34.88-83.552-53.44c-2.816-31.68-4.448-64.64-4.448-98.88s1.984-67.2 4.864-99.2c26.080-18.56 53.76-36.16 83.2-53.12s58.656-32 87.552-45.44c29.216 13.44 58.752 28.16 88.448 45.44s57.312 34.88 83.52 53.44c2.848 31.68 4.48 64.96 4.48 98.88s-1.952 67.2-4.832 99.2zM846.944 224c24.96 43.2 1.44 108.8-56.128 178.88-30.729-31.328-63.489-60.365-98.18-87.014l-2.204-1.626c-6.359-49.997-15.653-94.432-28.093-137.533l1.565 6.333c89.504-14.72 158.112-2.24 183.072 40.96zM697.856 400.64c18.88 15.68 35.84 31.68 51.776 47.68-16 16-33.44 31.68-52.224 47.36 0.672-15.68 1.568-31.36 1.568-47.68s-0.416-31.68-1.088-47.36zM846.944 672c-24.928 43.2-93.344 55.68-182.88 40.96 10.799-36.759 20.029-81.203 25.866-126.708l0.47-4.492c36.857-28.070 69.549-57.009 99.997-88.153l0.163-0.167c57.312 70.080 81.248 135.36 56.416 178.56zM459.008 352c-5.292-1.018-11.378-1.6-17.6-1.6-53.903 0-97.6 43.697-97.6 97.6s43.697 97.6 97.6 97.6c53.903 0 97.6-43.697 97.6-97.6v0c0.196-2.218 0.308-4.798 0.308-7.404 0-46.097-35.036-84.011-79.932-88.565l-0.376-0.031zM459.008 479.68c-6.447 4.798-14.567 7.682-23.36 7.682-21.738 0-39.36-17.622-39.36-39.36s17.622-39.36 39.36-39.36c21.737 0 39.359 17.621 39.36 39.358v0c0.403 1.787 0.633 3.839 0.633 5.946 0 11.388-6.745 21.201-16.458 25.662l-0.176 0.072z" />
<glyph unicode="&#xe908;" glyph-name="Webloopel-type" d="M64.001 319.998h960.001v63.998h-960.001v384.001h960.001v63.998h-960.001c-35.345 0-63.998-28.654-63.998-63.998v0-384.001c0-35.345 28.654-63.998 63.998-63.998v0zM756.191 188.161l43.618-78.72-75.519-45.442-43.618 78.72-75.711-45.442-60.96 382.719 288-246.399zM651.551 195.197v0l75.552 45.442-125.026 134.4zM944.001 703.999c8.838 0 15.998-7.163 15.998-15.998v0-224.002c0-8.838-7.163-15.998-15.998-15.998s-15.998 7.163-15.998 15.998v0 224.002c0 8.838 7.163 15.998 15.998 15.998v0zM190.817 480.002h19.776l23.232 143.040 22.622-143.040h39.71l42.658 192h-39.202l-23.938-141.442-21.792 141.442h-38.88l-21.95-141.12-23.774 141.12h-41.28l42.816-192h19.906zM406.625 480.002h19.776l23.232 143.040 22.622-143.040h39.744l42.686 192h-39.202l-23.938-141.442-21.792 141.442h-38.88l-21.95-141.12-23.554 141.12h-41.184l42.816-192h19.906zM622.434 480.002h19.776l23.232 143.040 22.56-143.040h39.682l42.686 192h-39.202l-23.966-141.442-21.826 141.442h-38.976l-21.922-141.12-23.554 141.12h-41.184l42.782-192h19.934zM790.531 480.002h41.472v52.478h-41.602v-52.478z" />
<glyph unicode="&#xe909;" glyph-name="Webloopel-list" d="M967.724-24h-911.448c-35.955 0-65.103 29.148-65.103 65.103v0 813.793c0 35.955 29.148 65.103 65.103 65.103v0h911.448c35.955 0 65.103-29.148 65.103-65.103v0-813.793c0-35.955-29.148-65.103-65.103-65.103v0zM967.724 854.897h-911.448v-97.655h911.448v97.655zM967.724 692.138h-911.448v-651.034h911.448v651.034zM121.379 789.793v32.552h-32.552v-32.552h32.552zM219.034 789.793v32.552h-65.103v-32.552h65.103zM284.138 789.793v32.552h-32.552v-32.552h32.552zM219.034 627.034v0c-35.955 0-65.103-29.148-65.103-65.103v-97.655c0-35.955 29.148-65.103 65.103-65.103h97.655c35.955 0 65.103 29.148 65.103 65.103v97.655c0 35.955-29.148 65.103-65.103 65.103h-97.655zM219.034 561.931h97.655v-97.655h-97.655v97.655zM479.448 594.483v0c-17.978 0-32.552-14.574-32.552-32.552s14.574-32.552 32.552-32.552h358.069c17.978 0 32.552 14.574 32.552 32.552s-14.574 32.552-32.552 32.552h-358.069zM479.448 496.828v0c-17.978 0-32.552-14.574-32.552-32.552s14.574-32.552 32.552-32.552h162.759c17.978 0 32.552 14.574 32.552 32.552s-14.574 32.552-32.552 32.552h-162.759zM219.034 334.069v0c-35.955 0-65.103-29.148-65.103-65.103v-97.655c0-35.955 29.148-65.103 65.103-65.103h97.655c35.955 0 65.103 29.148 65.103 65.103v97.655c0 35.955-29.148 65.103-65.103 65.103h-97.655zM219.034 268.966h97.655v-97.655h-97.655v97.655zM479.448 301.517h358.069c17.978 0 32.552-14.574 32.552-32.552s-14.574-32.552-32.552-32.552v0h-358.069c-17.978 0-32.552 14.574-32.552 32.552s14.574 32.552 32.552 32.552v0zM479.448 203.862h162.759c17.978 0 32.552-14.574 32.552-32.552s-14.574-32.552-32.552-32.552v0h-162.759c-17.978 0-32.552 14.574-32.552 32.552s14.574 32.552 32.552 32.552v0z" />
<glyph unicode="&#xe90a;" glyph-name="Webapp-analysis" d="M960 320h-960v64h448v384h-448v64h960c35.346 0 64-28.654 64-64v0-384c0-35.346-28.654-64-64-64v0zM960 768h-448v-384h448v384zM667.968 671.68h136.032c0.033 0 0.073 0 0.112 0 17.673 0 32-14.327 32-32 0-6.688-2.051-12.896-5.559-18.030l0.071 0.11-68-101.76c-5.766-8.726-15.532-14.404-26.624-14.404s-20.858 5.678-26.55 14.285l-0.074 0.119-68 101.76c-3.437 5.024-5.488 11.233-5.488 17.92 0 17.673 14.327 32 32 32 0.028 0 0.056 0 0.085 0h-0.004zM705.28 590.080l4.096-6.080c5.766-8.726 15.532-14.404 26.624-14.404s20.858 5.678 26.55 14.285l0.074 0.119 4.096 6.080c3.408 4.99 5.442 11.154 5.442 17.793 0 17.567-14.241 31.808-31.808 31.808-0.091 0-0.181 0-0.272-0.001h-8.178c-0.077 0.001-0.167 0.001-0.258 0.001-17.567 0-31.808-14.241-31.808-31.808 0-6.639 2.034-12.803 5.513-17.903l-0.071 0.11zM896 233.6l-288 246.4 60.96-382.72 75.712 45.44 43.584-78.72 75.552 45.44-43.616 78.72zM666.080 375.040l125.024-134.4-75.552-45.44z" />
<glyph unicode="&#xe90b;" glyph-name="fishing" d="M960-16h-896c-35.346 0-64 28.654-64 64v0 800c0 35.346 28.654 64 64 64v0h896c35.346 0 64-28.654 64-64v0-800c0-35.346-28.654-64-64-64v0zM960 848h-896v-96h896v96zM960 688h-896v-640h896v640zM192 624h32c35.346 0 64-28.654 64-64v0-384c0-35.346-28.654-64-64-64v0h-32c-35.346 0-64 28.654-64 64v0 384c0 35.346 28.654 64 64 64v0zM192 176h32v384h-32v-384zM416 624h192c35.346 0 64-28.654 64-64v0-384c0-35.346-28.654-64-64-64v0h-192c-35.346 0-64 28.654-64 64v0 384c0 35.346 28.654 64 64 64v0zM416 176h192v384h-192v-384zM800 624h32c35.346 0 64-28.654 64-64v0-384c0-35.346-28.654-64-64-64v0h-32c-35.346 0-64 28.654-64 64v0 384c0 35.346 28.654 64 64 64v0zM800 176h32v384h-32v-384zM128 784h-32v32h32v-32zM224 784h-64v32h64v-32zM288 784h-32v32h32v-32z" />
<glyph unicode="&#xe90c;" glyph-name="fishing-result" d="M960-16h-896c-35.346 0-64 28.654-64 64v0 800c0 35.346 28.654 64 64 64v0h896c35.346 0 64-28.654 64-64v0-800c0-35.346-28.654-64-64-64v0zM960 848h-896v-96h896v96zM960 688h-896v-640h896v640zM480 560v-96c0-35.346-28.654-64-64-64v0h-160c-35.346 0-64 28.654-64 64v0 96c0 35.346 28.654 64 64 64v0h160c35.346 0 64-28.654 64-64v0zM256 560v-96h160v96h-160zM128 784h-32v32h32v-32zM224 784h-64v32h64v-32zM288 784h-32v32h32v-32zM832 560v-96c0-35.346-28.654-64-64-64v0h-160c-35.346 0-64 28.654-64 64v0 96c0 35.346 28.654 64 64 64v0h160c35.346 0 64-28.654 64-64v0zM608 560v-96h160v96h-160zM480 272v-96c0-35.346-28.654-64-64-64v0h-160c-35.346 0-64 28.654-64 64v0 96c0 35.346 28.654 64 64 64v0h160c35.346 0 64-28.654 64-64v0zM256 272v-96h160v96h-160zM832 272v-96c0-35.346-28.654-64-64-64v0h-160c-35.346 0-64 28.654-64 64v0 96c0 35.346 28.654 64 64 64v0h160c35.346 0 64-28.654 64-64v0zM608 272v-96h160v96h-160z" />
<glyph unicode="&#xe90d;" glyph-name="fishing-notice" d="M960-16h-896c-35.346 0-64 28.654-64 64v0 800c0 35.346 28.654 64 64 64v0h896c35.346 0 64-28.654 64-64v0-800c0-35.346-28.654-64-64-64v0zM960 848h-896v-96h896v96zM960 688h-896v-640h896v640zM864 528v-32c0-35.346-28.654-64-64-64v0h-576c-35.346 0-64 28.654-64 64v0 32c0 35.346 28.654 64 64 64v0h576c35.346 0 64-28.654 64-64v0zM224 528v-32h576v32h-576zM480 304v-128c0-35.346-28.654-64-64-64v0h-160c-35.346 0-64 28.654-64 64v0 128c0 35.346 28.654 64 64 64v0h160c35.346 0 64-28.654 64-64v0zM256 304v-128h160v128h-160zM128 784h-32v32h32v-32zM224 784h-64v32h64v-32zM288 784h-32v32h32v-32zM832 304v-128c0-35.346-28.654-64-64-64v0h-160c-35.346 0-64 28.654-64 64v0 128c0 35.346 28.654 64 64 64v0h160c35.346 0 64-28.654 64-64v0zM608 304v-128h160v128h-160z" />
<glyph unicode="&#xe90e;" glyph-name="safe-log" d="M512 960v0c-282.77 0-512-229.23-512-512v0c0-282.77 229.23-512 512-512s512 229.23 512 512c0 282.77-229.23 512-512 512zM512 895.68c0.086 0 0.187 0 0.288 0 247.424 0 448-200.576 448-448s-200.576-448-448-448c-247.424 0-448 200.576-448 448 0 0.112 0 0.225 0 0.337v-0.017c0 0.019 0 0.041 0 0.064 0 247.211 200.405 447.616 447.616 447.616 0.034 0 0.068 0 0.101 0h-0.005zM512 703.68h-0.001c-141.199-0.018-255.66-114.479-255.679-255.68v0.018c0-0.112 0-0.225 0-0.337 0-141.385 114.615-256 256-256s256 114.615 256 256c0 141.385-114.615 256-256 256-0.112 0-0.225 0-0.32 0zM512 639.68c0.104 0 0.228 0 0.352 0 106.039 0 192-85.961 192-192s-85.961-192-192-192c-106.039 0-192 85.961-192 192 0 0.112 0 0.225 0 0.337v-0.017c0 0.019 0 0.042 0 0.064 0 105.827 85.789 191.616 191.616 191.616 0.011 0 0.023 0 0.034 0h-0.002zM576 896h64v-256h-64v256zM384 896h64v-256h-64v256zM576 236.16h64v-256h-64v256zM384 236.16h64v-256h-64v256zM981.984 384v-64h-256v64h256zM981.984 576v-64h-256v64h256zM309.984 384v-64h-256v64h256zM309.984 576v-64h-256v64h256z" />
<glyph unicode="&#xe90f;" glyph-name="event-alarm" d="M960-16h-896c-35.346 0-64 28.654-64 64v0 800c0 35.346 28.654 64 64 64v0h896c35.346 0 64-28.654 64-64v0-800c0-35.346-28.654-64-64-64v0zM960 848h-896v-96h896v96zM960 688h-896v-640h896v640zM191.744 517.088l46.528 42.592 209.344-191.68-209.344-191.68-46.528 42.624 162.816 149.056zM448 240h192c17.673 0 32-14.327 32-32s-14.327-32-32-32v0h-192c-17.673 0-32 14.327-32 32s14.327 32 32 32v0zM128 784h-32v32h32v-32zM224 784h-64v32h64v-32zM288 784h-32v32h32v-32z" />
<glyph unicode="&#xe910;" glyph-name="event-defens" d="M960-16h-896c-35.346 0-64 28.654-64 64v0 800c0 35.346 28.654 64 64 64v0h896c35.346 0 64-28.654 64-64v0-800c0-35.346-28.654-64-64-64v0zM960 848h-896v-96h896v96zM960 688h-896v-640h896v640zM376.224 503.776c5.791 5.789 13.789 9.369 22.624 9.369s16.833-3.58 22.624-9.369l90.528-90.528 90.496 90.528c5.827 6.027 13.985 9.769 23.017 9.769 17.673 0 32-14.327 32-32 0-9.032-3.742-17.19-9.76-23.009l-90.505-90.537 90.496-90.496c5.558-5.749 8.983-13.59 8.983-22.231 0-17.673-14.327-32-32-32-8.641 0-16.482 3.425-22.24 8.991l-90.487 90.487-90.528-90.496c-5.749-5.558-13.59-8.983-22.231-8.983-17.673 0-32 14.327-32 32 0 8.641 3.425 16.482 8.991 22.24l90.519 90.487-90.528 90.528c-5.789 5.791-9.369 13.789-9.369 22.624s3.58 16.833 9.369 22.624v0zM128 784h-32v32h32v-32zM224 784h-64v32h64v-32zM288 784h-32v32h32v-32z" />
<glyph unicode="&#xe911;" glyph-name="domain-monitor" d="M825.121 895.423l132.927-254.186-449.517-611.951-442.355 616.619 132.703 249.358h626.241zM831.834 959.201h-639.381c-19.927-1.137-37.079-12.046-46.849-27.973l-0.146-0.256-139.353-262.146c-3.346-7.002-5.301-15.218-5.301-23.891 0-11.31 3.324-21.843 9.047-30.677l-0.134 0.22 479.535-668.504c3.859-6.513 10.852-10.812 18.848-10.812 7.905 0 14.829 4.201 18.661 10.492l0.055 0.096 487.432 663.613c5.741 8.666 9.16 19.305 9.16 30.743 0 8.454-1.868 16.471-5.213 23.663l0.145-0.346-139.737 267.165c-9.789 16.241-26.903 27.206-46.65 28.318l-0.152 0.007zM963.706 607.541v63.938h-927.102v-63.938h927.102zM477.777 6.044l-299.71 903.125 60.741 20.172 299.71-903.125zM540.724 12.79l-60.358 21.132 321.257 919.877 60.358-21.132zM335.867 621.256l-52.461 36.541 200.35 287.721c5.681 8.121 14.88 13.444 25.338 13.746l0.046 0.001c10.49-0.034 19.853-4.833 26.040-12.346l0.047-0.058 215.279-277.108-50.511-39.226-188.617 242.965z" />
<glyph unicode="&#xe912;" glyph-name="event-suggest" horiz-adv-x="768" d="M704-64h-640c-35.346 0-64 28.654-64 64v0 896c0 35.346 28.654 64 64 64v0h543.008l160.992-160v-800c0-35.346-28.654-64-64-64v0zM576 894.080v-126.080h128zM704 704h-128c-35.346 0-64 28.654-64 64v0 128h-448v-896h640v704zM320 544h288c17.673 0 32-14.327 32-32s-14.327-32-32-32v0h-288c-17.673 0-32 14.327-32 32s14.327 32 32 32v0zM320 384h288c17.673 0 32-14.327 32-32s-14.327-32-32-32v0h-288c-17.673 0-32 14.327-32 32s14.327 32 32 32v0zM320 224h288c17.673 0 32-14.327 32-32s-14.327-32-32-32v0h-288c-17.673 0-32 14.327-32 32s14.327 32 32 32v0zM208 480h-32c-26.51 0-48 21.49-48 48s21.49 48 48 48v0h32c26.51 0 48-21.49 48-48s-21.49-48-48-48v0zM208 320h-32c-26.51 0-48 21.49-48 48s21.49 48 48 48v0h32c26.51 0 48-21.49 48-48s-21.49-48-48-48v0zM208 160h-32c-26.51 0-48 21.49-48 48s21.49 48 48 48v0h32c26.51 0 48-21.49 48-48s-21.49-48-48-48v0z" />
<glyph unicode="&#xe913;" glyph-name="event-action" horiz-adv-x="1025" d="M512.673 395.631c-0.007 0-0.016 0-0.024 0-5.598 0-10.864 1.423-15.455 3.928l0.169-0.084-475.55 259.123c-10.012 5.439-16.694 15.875-16.694 27.872 0 0.223 0.002 0.446 0.007 0.668l-0.001-0.033c0.226 12.253 7.243 22.815 17.437 28.102l0.18 0.085 480.45 241.506c4.207 2.107 9.166 3.34 14.414 3.34s10.206-1.233 14.603-3.426l-0.19 0.086 475.55-241.506c10.486-5.468 17.522-16.259 17.522-28.693 0-12.154-6.722-22.738-16.652-28.236l-0.165-0.084-480.45-258.803c-4.38-2.41-9.598-3.832-15.147-3.844h-0.003zM106.212 685.503l406.557-221.327 411.362 221.648-406.525 206.273zM1002.22 479.87l-95.033 48.045-68.64-36.835 80.075-40.678-411.362-221.648-406.557 221.327 85.392 42.92-68.448 37.155-100.414-50.287c-10.518-5.397-17.591-16.168-17.591-28.591 0-12.054 6.659-22.553 16.498-28.019l0.164-0.083 475.55-259.123c4.414-2.42 9.672-3.844 15.262-3.844s10.848 1.424 15.431 3.928l-0.168-0.084 480.45 259.123c10.084 5.452 16.82 15.947 16.82 28.015 0 0.173-0.001 0.345-0.004 0.517v-0.026c-0.172 12.211-7.105 22.765-17.216 28.102l-0.176 0.085zM1002.22 255.66l-90.036 44.201-68.64-37.155 75.078-36.514-411.362-221.648-406.557 221.327 79.37 35.874-68.416 37.475-94.425-43.561c-10.518-5.397-17.591-16.168-17.591-28.591 0-12.054 6.659-22.553 16.498-28.019l0.164-0.083 475.55-259.123c4.414-2.42 9.672-3.844 15.262-3.844s10.848 1.424 15.431 3.928l-0.168-0.084 480.45 259.123c10.084 5.452 16.82 15.947 16.82 28.015 0 0.173-0.001 0.345-0.004 0.517v-0.026c-0.172 12.211-7.105 22.765-17.216 28.102l-0.176 0.085z" />
<glyph unicode="&#xe914;" glyph-name="event-analysis" horiz-adv-x="836" d="M353.483 62.839c279.75 0 482.789 203.070 482.789 483.013v0.052c-0.365 174.427-95.14 326.689-238.207 409.612l0.135-0.078c-4.824 2.987-10.512 4.711-16.603 4.711-11.65 0-21.826-6.308-27.381-15.844l0.081 0.146c-2.869-4.799-4.517-10.412-4.517-16.41 0-11.708 6.282-21.95 15.807-27.618l1.967-1.053c121.946-70.709 204.092-202.461 204.627-353.52l-0.020 0.712c0.177-4.917 0.266-9.857 0.266-14.818 0-223.722-181.362-405.084-405.084-405.084-4.873 0-9.727 0.086-13.858 0.237h0.046c-0.295-0.001-0.59-0.001-0.884-0.001-56.102 0-109.593 11.181-155.628 30.429l0.214-0.078c-3.768 1.552-7.897 2.408-12.225 2.408-17.738 0-32.118-14.38-32.118-32.118 0-13.41 8.218-24.901 20.107-29.788l-3.2 1.167c56.447-23.254 118.289-36.080 183.127-36.080 0.198 0 0.395 0 0.562 0zM353.259 832.52c0.009 0 0.020 0 0.031 0 159.473 0 288.751-129.278 288.751-288.751s-129.278-288.751-288.751-288.751c-159.191 0-288.294 128.822-288.749 287.906v0.044c0.235 159.528 129.257 288.843 288.651 289.551h0.068zM353.259 896.581c-0.019 0-0.041 0-0.063 0-194.852 0-352.811-157.959-352.811-352.811s157.959-352.811 352.811-352.811c194.57 0 352.354 157.502 352.81 351.966v0.044c0 0.029 0 0.063 0 0.097 0 194.971-157.836 353.077-352.705 353.515h-0.042zM417.672-30.048v115.308l-0.002-0.057c0.014 0.396 0.021 0.794 0.021 1.194 0 17.778-14.131 32.256-31.825 32.815l-0.051-0.001c-17.643-0.558-31.774-15.036-31.774-32.814 0-0.4 0.007-0.798 0.020-1.136v-115.308l0.002 0.057c-0.014-0.396-0.021-0.794-0.021-1.194 0-17.778 14.131-32.256 31.825-32.815l0.051 0.001c17.643 0.558 31.774 15.036 31.774 32.814 0 0.4-0.007 0.798-0.020 1.136zM547.617-31.97c-0.444-17.787-14.969-32.036-32.821-32.036-0.229 0-0.457 0.002-0.684 0.007l0.034-0.001h-253.037c-0.194-0.004-0.422-0.006-0.65-0.006-17.853 0-32.377 14.25-32.82 31.995l-0.001 0.041c0.444 17.787 14.969 32.036 32.821 32.036 0.229 0 0.457-0.002 0.684-0.007l-0.034 0.001h253.037c0.194 0.004 0.422 0.006 0.65 0.006 17.853 0 32.377-14.25 32.82-31.995l0.001-0.041z" />
<glyph unicode="&#xe915;" glyph-name="event-monitor" d="M881.984 96h-49.984v39.424c78.875 80.51 127.55 190.867 127.55 312.592s-48.676 232.083-127.624 312.668l0.074-0.076v39.392h49.984c87.877-91.079 142.019-215.217 142.019-352s-54.142-260.921-142.164-352.151l0.145 0.151zM739.264 224h-35.264v55.424c39.727 44.623 64 103.765 64 168.576s-24.272 123.953-64.223 168.831l0.223-0.255v55.424h35.2c57.323-57.328 92.777-136.524 92.777-224s-35.454-166.672-92.777-224v0zM512.064 320c-70.692 0-128 57.308-128 128s57.308 128 128 128c70.692 0 128-57.308 128-128v0c0-70.692-57.308-128-128-128-0.023 0-0.045 0-0.068 0h0.004zM512.064 512c-35.346 0-64-28.654-64-64s28.654-64 64-64c35.346 0 64 28.654 64 64v0c0 35.346-28.654 64-64 64-0.023 0-0.045 0-0.068 0h0.004zM320.064 616.576c-39.727-44.623-64-103.765-64-168.576s24.272-123.953 64.223-168.831l-0.223 0.255v-55.424h-35.2c-57.323 57.328-92.777 136.524-92.777 224s35.454 166.672 92.777 224v0h35.136v-55.424zM192.064 135.424v-39.424h-50.016c-87.855 91.089-141.982 215.223-141.982 352s54.126 260.911 142.128 352.153l-0.146-0.153h49.952v-39.392c-78.897-80.5-127.588-190.86-127.588-312.592s48.692-232.092 127.661-312.666l-0.073 0.074z" />
<glyph unicode="&#xe916;" glyph-name="event-count" horiz-adv-x="768" d="M704-64h-640c-35.346 0-64 28.654-64 64v0 896c0 35.346 28.654 64 64 64v0h543.008l160.992-160v-800c0-35.346-28.654-64-64-64v0zM576 894.080v-126.080h128zM704 704h-128c-35.346 0-64 28.654-64 64v0 128h-448v-896h640v704zM160 672h128c17.673 0 32-14.327 32-32s-14.327-32-32-32v0h-128c-17.673 0-32 14.327-32 32s14.327 32 32 32v0zM160 544h128c17.673 0 32-14.327 32-32s-14.327-32-32-32v0h-128c-17.673 0-32 14.327-32 32s14.327 32 32 32v0zM160 416h128c17.673 0 32-14.327 32-32s-14.327-32-32-32v0h-128c-17.673 0-32 14.327-32 32s14.327 32 32 32v0zM160 288h448c17.673 0 32-14.327 32-32s-14.327-32-32-32v0h-448c-17.673 0-32 14.327-32 32s14.327 32 32 32v0zM160 160h448c17.673 0 32-14.327 32-32s-14.327-32-32-32v0h-448c-17.673 0-32 14.327-32 32s14.327 32 32 32v0zM576 352h-128c-35.346 0-64 28.654-64 64v0 192c0 35.346 28.654 64 64 64v0h128c35.346 0 64-28.654 64-64v0-192c0-35.346-28.654-64-64-64v0zM576 608h-128v-192h128v192z" />
<glyph unicode="&#xe917;" glyph-name="virus-count" horiz-adv-x="768" d="M704-64h-640c-35.346 0-64 28.654-64 64v0 896c0 35.346 28.654 64 64 64v0h543.008l160.992-160v-800c0-35.346-28.654-64-64-64v0zM64 0h640v704h-128c-35.346 0-64 28.654-64 64v0 128h-448v-896zM576 894.048v-126.048h128zM202.048 416h44.8v227.808h-36.704c-5.382-12.385-14.109-22.472-25.045-29.379l-0.267-0.157c-9.436-5.879-20.891-9.365-33.161-9.365-1.528 0-3.044 0.054-4.545 0.16l0.202-0.011v-32h54.688v-157.056zM392.192 410.080c1.397-0.103 3.026-0.162 4.668-0.162 22.62 0 42.629 11.176 54.808 28.307l0.14 0.207c12.344 21.862 19.618 48.003 19.618 75.843 0 4.019-0.152 8.003-0.449 11.946l0.032-0.525v1.088c0.243 3.317 0.381 7.186 0.381 11.087 0 28.239-7.255 54.784-20.002 77.872l0.421-0.831c-13.94 17.66-35.346 28.893-59.376 28.893s-45.436-11.233-59.255-28.734l-0.121-0.159c-12.444-22.587-19.766-49.506-19.766-78.136 0-3.899 0.136-7.766 0.403-11.596l-0.029 0.516c-0.232-3.208-0.364-6.951-0.364-10.724 0-28.091 7.324-54.471 20.167-77.335l-0.411 0.795c12.179-17.327 32.081-28.512 54.596-28.512 1.62 0 3.227 0.058 4.818 0.172l-0.214-0.012zM392.192 446.304c-0.211-0.006-0.459-0.010-0.708-0.010-11.423 0-21.099 7.482-24.394 17.813l-0.050 0.181c-4.82 15.524-7.597 33.372-7.597 51.868 0 3.468 0.098 6.914 0.29 10.334l-0.021-0.474c-0.149 2.834-0.235 6.153-0.235 9.491 0 19.139 2.798 37.624 8.007 55.069l-0.349-1.36c3.234 10.691 12.999 18.341 24.549 18.341 0.178 0 0.356-0.002 0.533-0.005h-0.026c0.185 0.005 0.402 0.007 0.62 0.007 11.612 0 21.44-7.636 24.738-18.16l0.050-0.184c4.803-15.739 7.568-33.829 7.568-52.564 0-3.741-0.11-7.457-0.328-11.144l0.024 0.508c0.169-2.926 0.266-6.348 0.266-9.792 0-18.522-2.787-36.392-7.965-53.215l0.339 1.28c-3.344-10.514-13.020-17.999-24.445-17.999-0.305 0-0.608 0.005-0.91 0.016l0.044-0.001zM557.984 416h44.8v227.808h-36.704c-5.382-12.385-14.109-22.472-25.045-29.379l-0.267-0.157c-9.436-5.879-20.891-9.365-33.161-9.365-1.528 0-3.044 0.054-4.545 0.16l0.202-0.011v-32h54.688v-157.056zM214.4 122.080c1.397-0.103 3.026-0.162 4.668-0.162 22.62 0 42.629 11.176 54.808 28.307l0.14 0.207c12.344 21.862 19.618 48.003 19.618 75.843 0 4.019-0.152 8.003-0.449 11.946l0.032-0.525v1.088c0.247 3.338 0.387 7.232 0.387 11.158 0 28.216-7.257 54.737-20.007 77.798l0.42-0.828c-13.94 17.66-35.346 28.893-59.376 28.893s-45.436-11.233-59.255-28.734l-0.121-0.159c-12.423-22.597-19.732-49.522-19.732-78.154 0-3.892 0.135-7.753 0.401-11.578l-0.029 0.516c-0.231-3.204-0.362-6.942-0.362-10.711 0-28.091 7.311-54.475 20.134-77.352l-0.412 0.799c12.185-17.328 32.093-28.512 54.613-28.512 1.625 0 3.237 0.058 4.833 0.173l-0.214-0.012zM214.4 158.304c-0.211-0.006-0.459-0.010-0.708-0.010-11.423 0-21.099 7.482-24.394 17.813l-0.050 0.181c-4.839 15.543-7.626 33.414-7.626 51.936 0 3.445 0.096 6.867 0.287 10.264l-0.021-0.472c-0.145 2.802-0.228 6.084-0.228 9.385 0 19.175 2.796 37.697 8.001 55.181l-0.349-1.366c3.234 10.691 12.998 18.342 24.549 18.342 0.189 0 0.378-0.002 0.567-0.006h-0.028c0.182 0.005 0.397 0.007 0.612 0.007 11.606 0 21.428-7.637 24.715-18.16l0.049-0.183c4.806-15.712 7.574-33.773 7.574-52.479 0-3.771-0.112-7.517-0.334-11.232l0.024 0.512c0.171-2.946 0.269-6.391 0.269-9.86 0-18.496-2.776-36.344-7.935-53.15l0.338 1.281c-3.412-10.521-13.126-17.994-24.585-17.994-0.256 0-0.51 0.004-0.764 0.011l0.037-0.001zM380.16 128h44.8v227.808h-36.736c-5.371-12.392-14.101-22.481-25.045-29.379l-0.267-0.157c-9.433-5.88-20.886-9.366-33.153-9.366-1.531 0-3.050 0.054-4.554 0.161l0.202-0.012v-32h54.688v-157.056zM558.144 128h44.8v227.808h-36.704c-5.382-12.385-14.109-22.472-25.045-29.379l-0.267-0.157c-9.436-5.879-20.891-9.365-33.161-9.365-1.528 0-3.044 0.054-4.545 0.16l0.202-0.011v-32h54.688v-157.056z" />
<glyph unicode="&#xe918;" glyph-name="virused-count" horiz-adv-x="768" d="M704-64h-640c-35.346 0-64 28.654-64 64v0 896c0 35.346 28.654 64 64 64v0h543.008l160.992-160v-800c0-35.346-28.654-64-64-64v0zM576 894.048v-126.048h128zM704 704h-128c-35.346 0-64 28.654-64 64v0 128h-448v-896h640v704zM192 608h384c35.346 0 64-28.654 64-64v0-320c0-35.346-28.654-64-64-64v0h-384c-35.346 0-64 28.654-64 64v0 320c0 35.346 28.654 64 64 64v0zM480 224h96v64h-96v-64zM480 352h96v64h-96v-64zM480 480h96v64h-96v-64zM320 224h96v64h-96v-64zM320 352h96v64h-96v-64zM320 480h96v64h-96v-64zM192 224h64v64h-64v-64zM192 352h64v64h-64v-64zM192 480h64v64h-64v-64z" />
<glyph unicode="&#xe919;" glyph-name="host-list" horiz-adv-x="896" d="M640 66.56v-2.56c0-70.72-143.264-128-320-128s-320 57.28-320 128v640c0 62.080 109.92 113.6 256 125.44v2.56c0 70.72 143.264 128 320 128s320-57.28 320-128v-640c0-61.76-109.952-113.6-256-125.44zM64 64c0-35.2 114.624-64 256-64s256 28.8 256 64v115.52c-75.586-32.575-163.581-51.519-256-51.519s-180.414 18.944-260.312 53.162l4.312-1.642v-115.52zM64 256c0-35.2 114.624-64 256-64s256 28.8 256 64v147.52c-75.586-32.575-163.581-51.519-256-51.519s-180.414 18.944-260.312 53.162l4.312-1.642v-147.52zM64 480c0-35.2 114.624-64 256-64s256 28.8 256 64v147.52c-75.586-32.575-163.581-51.519-256-51.519s-180.414 18.944-260.312 53.162l4.312-1.642v-147.52zM64 704c0-35.2 114.624-64 256-64s256 28.8 256 64-114.624 64-256 64-256-28.8-256-64zM576 896c-141.376 0-256-28.8-256-64 126.912 0 236.256-29.76 288-72.64v9.28c126.24 3.84 224 30.72 224 63.36 0 35.2-114.624 64-256 64zM832 755.52c-56.176-27.397-121.795-44.946-191.099-48.588l-1.253-0.052c0-0.96 0.352-1.92 0.352-2.88v-157.76c110.208 7.36 192 32 192 61.76v147.52zM832 531.52c-56.067-27.389-121.564-44.938-190.746-48.587l-1.254-0.053v-160.64c110.208 7.36 192 32 192 61.76v147.52zM832 307.52c-56.067-27.389-121.564-44.938-190.746-48.587l-1.254-0.053v-128.64c110.208 7.36 192 32 192 61.76v115.52z" />
<glyph unicode="&#xe91a;" glyph-name="host-count" horiz-adv-x="704" d="M352-64c-194.4 0-352 57.28-352 128v768c0 70.72 157.6 128 352 128s352-57.28 352-128v-768c0-70.72-157.6-128-352-128zM352 896c-159.072 0-288-28.8-288-64s128.928-64 288-64 288 28.8 288 64-128.96 64-288 64zM640 758.4c-85.363-34.426-184.349-54.399-288-54.399s-202.637 19.973-293.32 56.279l5.32-1.88v-182.4c0-35.2 128.928-64 288-64s288 28.8 288 64v182.4zM640 502.4c-85.363-34.426-184.349-54.399-288-54.399s-202.637 19.973-293.32 56.279l5.32-1.88v-182.4c0-35.2 128.928-64 288-64s288 28.8 288 64v182.4zM640 246.4c-85.363-34.426-184.349-54.399-288-54.399s-202.637 19.973-293.32 56.279l5.32-1.88v-182.4c0-35.2 128.928-64 288-64s288 28.8 288 64v182.4z" />
<glyph unicode="&#xe91b;" glyph-name="host-analysis" horiz-adv-x="960" d="M64 960v0c-35.346 0-64-28.654-64-64v-896c0-35.346 28.654-64 64-64h320c35.346 0 64 28.654 64 64v896c0 35.346-28.654 64-64 64h-320zM64 896h320v-896h-320v896zM128 832v0c-17.673 0-32-14.327-32-32s14.327-32 32-32h192c17.673 0 32 14.327 32 32s-14.327 32-32 32h-192zM128 736v0c-17.673 0-32-14.327-32-32s14.327-32 32-32h192c17.673 0 32 14.327 32 32s-14.327 32-32 32h-192zM128 640v0c-17.673 0-32-14.327-32-32s14.327-32 32-32h192c17.673 0 32 14.327 32 32s-14.327 32-32 32h-192zM128 320v0c-17.673 0-32-14.327-32-32s14.327-32 32-32h192c17.673 0 32 14.327 32 32s-14.327 32-32 32h-192zM128 224v0c-17.673 0-32-14.327-32-32s14.327-32 32-32h192c17.673 0 32 14.327 32 32s-14.327 32-32 32h-192zM128 128v0c-17.673 0-32-14.327-32-32s14.327-32 32-32h192c17.673 0 32 14.327 32 32s-14.327 32-32 32h-192zM192 480v-64h64v64h-64zM576 960v0c-35.346 0-64-28.654-64-64v-896c0-35.346 28.654-64 64-64h320c35.346 0 64 28.654 64 64v896c0 35.346-28.654 64-64 64h-320zM576 896h320v-896h-320v896zM640 832h192c17.673 0 32-14.327 32-32s-14.327-32-32-32v0h-192c-17.673 0-32 14.327-32 32s14.327 32 32 32v0zM640 736h192c17.673 0 32-14.327 32-32s-14.327-32-32-32v0h-192c-17.673 0-32 14.327-32 32s14.327 32 32 32v0zM640 640h192c17.673 0 32-14.327 32-32s-14.327-32-32-32v0h-192c-17.673 0-32 14.327-32 32s14.327 32 32 32v0zM640 320h192c17.673 0 32-14.327 32-32s-14.327-32-32-32v0h-192c-17.673 0-32 14.327-32 32s14.327 32 32 32v0zM640 224h192c17.673 0 32-14.327 32-32s-14.327-32-32-32v0h-192c-17.673 0-32 14.327-32 32s14.327 32 32 32v0zM640 128h192c17.673 0 32-14.327 32-32s-14.327-32-32-32v0h-192c-17.673 0-32 14.327-32 32s14.327 32 32 32v0zM704 480h64v-64h-64v64z" />
<glyph unicode="&#xe91c;" glyph-name="host-total-an" d="M960-16h-896c-35.346 0-64 28.654-64 64v0 800c0 35.346 28.654 64 64 64v0h896c35.346 0 64-28.654 64-64v0-800c0-35.346-28.654-64-64-64v0zM960 848h-896v-96h896v96zM960 688h-896v-640h896v640zM256 272l128 288 64-32 55.904-181.76 72.096 149.76 152.96-107.84 118.56 71.36 32.928-55.040-160-96-112.448 91.52-89.6-157.44-41.6-0.64-77.728 194.24-113.536-272.32-157.536 108.16 32 64zM128 784h-32v32h32v-32zM224 784h-64v32h64v-32zM288 784h-32v32h32v-32z" />
<glyph unicode="&#xea1c;" glyph-name="play3" d="M896 768l-384-640-384 640z" />
</font>
</defs>
</svg>
